<?xml version="1.0" encoding="utf-8"?>
<!-- Svg Vector Icons : http://www.onlinewebfonts.com/icon -->
<!DOCTYPE svg PUBLIC "-//W3C//DTD SVG 1.1//EN" "http://www.w3.org/Graphics/SVG/1.1/DTD/svg11.dtd">
<svg version="1.1" xmlns="http://www.w3.org/2000/svg" xmlns:xlink="http://www.w3.org/1999/xlink" x="0px" y="0px" viewBox="0 0 1000 1000" enable-background="new 0 0 1000 1000" xml:space="preserve">
<metadata> Svg Vector Icons : http://www.onlinewebfonts.com/icon </metadata>
<g><g transform="translate(0.000000,511.000000) scale(0.100000,-0.100000)"><path d="M401.5,3362.2c-146.6-50.8-246.3-158.3-285.4-305c-13.7-46.9-17.6-1069.3-15.6-2992.8l5.9-2918.5l43-78.2c46.9-89.9,105.6-146.6,201.3-197.4c66.5-35.2,215-37.1,4652.5-37.1h4584.1l78.2,43c89.9,46.9,146.6,105.5,197.4,201.3c35.2,66.5,37.1,175.9,37.1,3030c0,2854-1.9,2963.5-37.1,3030c-50.8,95.8-107.5,154.4-197.4,201.3l-78.2,43l-4554.7,3.9C1156.1,3389.5,466,3385.6,401.5,3362.2z M1723,2547l5.9-572.8l54.7-111.4c68.4-138.8,215-273.7,357.7-326.5c105.6-41.1,131-41.1,2861.9-41.1s2756.3,0,2861.9,41.1c142.7,52.8,289.3,187.7,357.7,326.5l54.7,111.4l5.9,572.8l5.9,572.8l623.6-5.9c619.7-5.9,625.5-5.9,668.6-50.8l45-45V107.4v-2910.7l-45-45l-45-45H5001.2H464.1l-46.9,54.7l-46.9,54.7V103.5c0,2621.4,1.9,2893.1,31.3,2932.2c17.6,25.4,50.8,52.8,74.3,62.6c21.5,9.8,310.8,17.6,641.2,17.6l600.1,2L1723,2547z M8009.7,2576.3c-5.9-609.9-7.8-613.8-158.3-737l-76.2-60.6H5003.2H2231.2l-76.2,60.6c-150.5,123.2-152.5,127.1-158.3,737l-5.9,541.5h3012.4h3012.4L8009.7,2576.3z"/><path d="M2598.7,832.6C2407.2,770.1,2239,611.7,2168.7,428c-86-230.7-19.6-521.9,160.3-682.2c263.9-240.4,651-234.6,895.3,9.8c318.6,318.6,217,858.2-193.5,1041.9C2933,840.4,2684.7,861.9,2598.7,832.6z M2929.1,537.4c328.4-166.2,256.1-621.6-109.5-695.9c-138.8-27.4-314.7,72.3-379.2,217C2297.7,369.3,2628.1,691.9,2929.1,537.4z"/><path d="M3752.1,205.1V-440h1251.1h1251.1v645.1v645.1H5003.2H3752.1V205.1z M4336.6,453.4c11.7-68.4,21.5-179.8,21.5-248.3s-9.8-179.9-21.5-248.3l-21.5-123.1h-144.7h-144.6v371.4v371.4h144.6h144.7L4336.6,453.4z M4973.8,205.1v-371.4h-191.6h-189.6l13.7,84.1c9.8,45,15.6,174,15.6,287.4c0,113.4-5.9,242.4-15.6,289.3l-13.7,82.1h189.6h191.6V205.1z M5980.6,205.1v-371.4l-355.8,3.9l-357.7,5.9L5249.5,7.7c-7.8,89.9-9.8,254.1-1.9,365.6l13.7,203.3h359.7h359.7V205.1z"/><path d="M7002.9,811.1c-138.8-56.7-285.4-191.6-349.9-328.4c-45-91.9-54.8-138.8-54.8-267.8c-1.9-138.8,5.9-172,62.6-287.4c35.2-70.4,95.8-158.3,134.9-193.5c256.1-224.8,627.5-218.9,881.6,11.7c45,39.1,105.6,121.2,134.9,181.8c74.3,150.5,78.2,392.9,9.8,541.5c-56.7,123.2-181.8,252.2-306.9,318.6C7378.3,858,7147.6,867.8,7002.9,811.1z M7431.1,517.9c150.5-101.7,207.2-275.6,144.6-439.8C7470.2-193.7,7108.5-242.5,6938.4-6c-134.9,183.8-72.3,432,134.9,545.4C7171.1,592.2,7339.2,582.4,7431.1,517.9z"/><path d="M1062.2-1092.9c-33.2-15.6-78.2-50.8-101.6-80.1c-41.1-52.8-43-70.4-43-551.3v-498.5l66.5-66.5l66.5-66.5h3952.7h3952.7l66.5,66.5l66.5,66.5v498.5c0,480.9-2,498.5-43,551.3c-89.9,113.4,166.2,107.5-4046.5,107.5C1799.2-1067.5,1113.1-1071.4,1062.2-1092.9z M8815.1-1710.6V-2082H5003.2H1191.3v371.4v371.4h3811.9h3811.9V-1710.6z"/><path d="M2647.6,2760.1c-72.3-33.2-107.5-105.6-107.5-218.9c0-156.4,52.8-217,201.3-236.5c97.7-11.7,205.3,35.2,244.4,109.5c41,78.2,19.6,246.3-37.1,305C2888,2779.6,2735.6,2799.2,2647.6,2760.1z"/><path d="M7141.7,2771.8c-23.5-3.9-62.6-29.3-86-54.7c-54.7-58.6-74.3-226.8-35.2-303c76.2-144.7,359.7-148.6,424.2-5.9c31.3,66.5,25.4,213.1-7.8,279.5C7397.8,2765.9,7278.6,2799.2,7141.7,2771.8z"/><path d="M4866.3,2449.3c-72.3-39.1-99.7-107.5-91.9-236.5c9.8-156.4,50.8-195.5,215-205.3c111.4-7.8,131-2,181.8,41c52.8,46.9,56.7,58.6,56.7,187.7c0,115.3-5.9,144.7-43,181.8C5132.2,2470.8,4942.6,2488.3,4866.3,2449.3z"/></g></g>
</svg>